<?xml version="1.0" standalone="no"?>
<!DOCTYPE svg PUBLIC "-//W3C//DTD SVG 20010904//EN"
 "http://www.w3.org/TR/2001/REC-SVG-20010904/DTD/svg10.dtd">
<svg version="1.0" xmlns="http://www.w3.org/2000/svg"
 width="2000.000000pt" height="603.000000pt" viewBox="0 0 2000.000000 603.000000"
 preserveAspectRatio="xMidYMid meet">

<g transform="translate(0.000000,603.000000) scale(0.100000,-0.100000)"
fill="#000000" stroke="none">
<path d="M1261 6019 c-631 -71 -1037 -390 -1146 -902 -18 -84 -6 -125 46 -149
31 -15 550 -78 638 -78 48 0 94 49 111 120 55 233 255 370 520 357 186 -9 315
-97 365 -247 29 -86 49 -420 27 -434 -4 -2 -98 -14 -208 -25 -507 -53 -762
-107 -980 -206 -204 -93 -377 -246 -486 -430 -204 -342 -192 -874 26 -1179 82
-115 206 -216 335 -273 261 -116 709 -107 984 20 107 50 242 145 351 248 52
49 98 89 103 89 6 0 30 -30 55 -67 105 -158 260 -321 328 -345 59 -20 90 -4
232 120 73 64 190 166 260 225 69 59 129 115 132 123 14 38 5 84 -27 130 -19
27 -58 85 -89 129 -66 95 -78 119 -109 205 l-23 65 -6 795 c-7 819 -9 866 -51
1029 -89 349 -391 583 -859 666 -113 20 -408 28 -529 14z m567 -1939 c4 -153
-14 -393 -38 -485 -65 -253 -247 -446 -449 -475 -202 -28 -363 82 -416 287
-19 74 -19 239 0 322 64 272 311 423 735 451 183 12 164 23 168 -100z"/>
<path d="M9341 6014 c-517 -63 -887 -305 -1048 -687 -38 -91 -73 -220 -73
-270 0 -43 38 -93 78 -101 42 -9 572 -66 612 -66 59 1 90 38 119 142 60 220
256 348 511 335 197 -10 313 -91 371 -258 18 -54 23 -93 27 -246 4 -162 3
-183 -11 -183 -36 0 -412 -42 -547 -61 -465 -65 -750 -181 -961 -391 -131
-131 -218 -283 -266 -467 -31 -117 -43 -369 -23 -503 57 -392 297 -656 675
-744 97 -23 394 -26 520 -5 234 38 410 130 634 331 102 92 104 93 120 73 9
-11 45 -62 80 -112 76 -109 246 -276 290 -286 70 -15 63 -20 416 287 l200 174
0 55 c0 52 -4 59 -73 154 -41 55 -91 136 -112 180 -70 144 -70 149 -70 932 0
741 -6 875 -45 1028 -76 299 -296 515 -635 623 -244 77 -510 100 -789 66z
m597 -1989 c5 -274 -18 -423 -87 -570 -103 -218 -264 -337 -456 -337 -230 -1
-375 172 -375 447 0 347 217 552 640 604 82 11 198 18 250 17 l25 -1 3 -160z"/>
<path d="M4890 5989 c-86 -13 -217 -59 -287 -100 -74 -44 -184 -147 -239 -224
-23 -34 -65 -106 -91 -160 l-48 -100 -5 225 c-5 243 -9 258 -60 285 -43 22
-647 22 -690 0 -64 -33 -60 85 -60 -1682 0 -1256 3 -1613 13 -1632 6 -13 25
-34 40 -45 27 -20 42 -21 335 -24 169 -2 326 0 350 3 27 4 55 17 75 35 l32 28
5 1064 c5 968 7 1070 23 1147 49 229 138 346 292 386 196 50 372 -30 439 -201
51 -130 50 -89 55 -1280 6 -1094 6 -1112 26 -1134 42 -47 64 -50 397 -49 339
0 366 4 402 52 21 28 21 32 27 1100 5 973 7 1079 23 1147 39 167 116 273 244
333 63 30 74 32 177 32 133 -1 190 -21 258 -94 56 -60 85 -137 97 -260 5 -53
10 -574 10 -1159 0 -896 2 -1067 14 -1090 29 -56 39 -57 410 -57 314 0 344 1
370 18 59 39 56 -24 56 1316 0 777 -4 1267 -10 1332 -13 129 -49 268 -91 351
-168 335 -582 512 -991 424 -267 -58 -501 -249 -613 -502 l-26 -59 -52 100
c-29 55 -66 120 -83 145 -112 160 -263 268 -444 314 -79 20 -290 29 -380 15z"/>
<path d="M15440 5993 c-369 -40 -671 -209 -890 -501 -167 -222 -272 -486 -333
-832 -30 -173 -32 -644 -4 -815 74 -442 225 -772 462 -1010 177 -178 372 -285
620 -340 110 -25 379 -30 500 -11 436 72 782 343 995 781 98 200 163 433 189
667 16 140 13 452 -4 602 -41 352 -159 685 -326 920 -117 164 -302 326 -468
411 -200 100 -505 153 -741 128z m312 -672 c70 -27 147 -95 187 -164 64 -114
111 -333 132 -613 13 -180 6 -662 -11 -789 -30 -221 -98 -406 -184 -502 -88
-97 -234 -148 -359 -123 -306 59 -430 437 -414 1260 6 305 19 425 63 576 59
206 171 336 321 374 61 15 201 5 265 -19z"/>
<path d="M18995 5994 c-16 -2 -64 -12 -105 -20 -252 -53 -431 -215 -578 -522
l-47 -97 -5 257 -5 258 -28 27 -27 28 -336 3 -335 3 -35 -35 -34 -34 0 -1622
c0 -1514 1 -1624 17 -1651 33 -56 63 -60 423 -57 303 3 327 4 354 23 58 39 56
-1 56 1051 0 1050 2 1084 56 1251 84 257 253 386 462 352 160 -25 249 -124
298 -329 16 -69 18 -169 23 -1176 6 -1084 6 -1102 26 -1124 42 -47 64 -50 392
-50 179 0 323 4 345 10 20 6 48 25 63 42 l26 31 -4 1226 c-3 1066 -5 1240 -20
1332 -34 226 -74 349 -152 469 -145 224 -378 346 -675 355 -69 2 -138 1 -155
-1z"/>
<path d="M11614 5921 c-52 -32 -55 -52 -52 -340 l3 -263 33 -29 32 -29 550 0
c350 0 550 -4 550 -10 0 -5 -275 -404 -612 -887 -383 -549 -621 -900 -636
-936 -32 -79 -42 -188 -42 -464 0 -253 7 -296 55 -327 39 -26 76 -19 186 33
201 96 425 164 654 197 165 25 497 25 655 1 243 -37 472 -105 669 -198 113
-53 138 -58 177 -33 51 34 54 52 54 336 0 155 -4 279 -11 301 -17 64 -72 113
-183 167 -259 124 -505 181 -878 203 l-190 12 568 810 c312 446 581 837 598
869 l31 59 3 216 c4 246 -2 282 -51 311 -31 19 -59 20 -1082 20 -1010 0 -1051
-1 -1081 -19z"/>
</g>
</svg>
