<?xml version="1.0" standalone="no"?>
<!DOCTYPE svg PUBLIC "-//W3C//DTD SVG 20010904//EN"
 "http://www.w3.org/TR/2001/REC-SVG-20010904/DTD/svg10.dtd">
<svg version="1.0" xmlns="http://www.w3.org/2000/svg"
 width="1200.000000pt" height="256.000000pt" viewBox="0 0 1200.000000 256.000000"
 preserveAspectRatio="xMidYMid meet">

<g transform="translate(0.000000,256.000000) scale(0.100000,-0.100000)"
fill="#000000" stroke="none">
<path d="M0 1955 l0 -605 605 0 605 0 0 605 0 605 -605 0 -605 0 0 -605z"/>
<path d="M11130 2147 c-81 -19 -129 -45 -185 -102 -86 -85 -115 -172 -115
-341 l0 -94 -90 0 -90 0 0 -100 0 -100 90 0 90 0 0 -445 0 -445 130 0 130 0 0
445 0 445 195 0 195 0 0 -320 c0 -187 4 -339 11 -368 17 -81 65 -150 129 -186
54 -30 58 -31 185 -31 79 0 141 5 158 12 27 12 27 13 27 112 l0 100 -46 -16
c-84 -29 -162 -3 -192 65 -14 31 -17 83 -20 335 l-3 297 135 0 136 0 0 100 0
99 -132 3 -133 3 -5 161 -5 162 -120 -37 -120 -36 -3 -128 -3 -127 -194 0
-195 0 0 108 c0 92 3 114 23 152 31 61 74 82 157 77 36 -2 73 -7 83 -12 16 -7
17 2 17 98 0 59 -4 109 -10 112 -21 13 -177 14 -230 2z"/>
<path d="M5335 2070 c-77 -17 -115 -61 -115 -133 0 -94 55 -147 152 -147 88 0
148 56 148 139 0 96 -88 164 -185 141z"/>
<path d="M3330 1280 l0 -760 120 0 120 0 1 603 c0 464 3 598 12 585 6 -10 118
-280 247 -600 l236 -583 89 0 90 0 230 583 c127 321 236 591 242 600 9 13 12
-128 12 -585 l1 -603 130 0 130 0 0 760 0 760 -182 -2 -181 -3 -228 -555
c-125 -305 -230 -559 -233 -565 -2 -6 -9 -4 -14 4 -6 8 -106 263 -223 567
l-214 554 -192 0 -193 0 0 -760z"/>
<path d="M9010 1644 c-176 -26 -273 -84 -329 -196 -27 -53 -31 -72 -31 -142 0
-142 62 -229 216 -301 44 -20 102 -48 131 -61 72 -34 113 -83 113 -135 0 -50
-13 -75 -48 -93 -76 -39 -217 -24 -339 36 -38 18 -71 34 -75 36 -5 2 -8 -50
-8 -116 l0 -120 41 -16 c22 -9 86 -24 142 -33 304 -48 530 77 545 303 6 91
-15 156 -70 219 -33 38 -70 60 -205 126 -147 72 -166 84 -179 115 -64 153 114
226 320 130 l76 -35 0 119 0 119 -52 16 c-90 27 -185 38 -248 29z"/>
<path d="M6190 1628 c-145 -11 -251 -59 -344 -154 -98 -101 -153 -235 -163
-403 -16 -263 126 -480 362 -554 127 -39 346 -26 461 29 l34 16 0 114 c0 63
-2 114 -5 114 -3 0 -23 -11 -43 -25 -93 -61 -224 -81 -328 -50 -157 47 -246
217 -216 411 15 95 48 160 112 217 109 98 260 110 408 32 l62 -33 0 118 0 119
-56 20 c-71 27 -177 38 -284 29z"/>
<path d="M7885 1628 c-194 -17 -342 -113 -420 -272 -49 -100 -66 -174 -67
-296 -1 -128 13 -203 58 -296 83 -176 258 -274 489 -274 289 0 490 156 551
426 20 91 15 280 -10 357 -83 261 -290 383 -601 355z m174 -214 c33 -9 69 -30
96 -55 143 -132 136 -492 -13 -606 -52 -40 -98 -53 -183 -53 -125 0 -215 53
-265 158 -24 49 -28 73 -32 173 -3 87 0 129 11 170 52 178 210 266 386 213z"/>
<path d="M9990 1629 c-246 -20 -414 -160 -477 -399 -24 -91 -24 -284 1 -365
73 -244 259 -375 528 -375 269 1 457 129 535 365 22 68 26 99 27 205 1 76 -4
147 -13 180 -44 179 -169 317 -334 370 -55 17 -179 26 -267 19z m169 -215 c81
-24 143 -91 172 -184 18 -61 21 -89 17 -193 -3 -104 -8 -130 -30 -178 -50
-109 -131 -159 -258 -159 -178 0 -285 107 -305 305 -18 191 70 368 205 410 61
18 135 18 199 -1z"/>
<path d="M7215 1623 c-87 -19 -158 -72 -198 -148 l-22 -40 -3 88 -3 87 -124 0
-125 0 0 -545 0 -545 125 0 125 0 0 319 c0 289 2 325 20 382 46 148 159 209
306 164 27 -8 50 -15 52 -15 1 0 2 56 2 124 l0 124 -31 6 c-34 7 -92 6 -124
-1z"/>
<path d="M5240 1065 l0 -545 125 0 125 0 0 545 0 545 -125 0 -125 0 0 -545z"/>
</g>
</svg>
