<?xml version="1.0" standalone="no"?>
<!DOCTYPE svg PUBLIC "-//W3C//DTD SVG 20010904//EN"
 "http://www.w3.org/TR/2001/REC-SVG-20010904/DTD/svg10.dtd">
<svg version="1.0" xmlns="http://www.w3.org/2000/svg"
 width="500.000000pt" height="500.000000pt" viewBox="0 0 500.000000 500.000000"
 preserveAspectRatio="xMidYMid meet">

<g transform="translate(0.000000,500.000000) scale(0.100000,-0.100000)"
fill="#000000" stroke="none">
<path d="M643 3460 c-44 -27 -65 -63 -65 -111 1 -65 52 -105 164 -128 75 -16
108 -42 108 -87 0 -85 -124 -113 -221 -49 -22 14 -47 24 -55 21 -53 -20 44
-86 140 -93 115 -10 175 28 184 117 4 47 3 52 -31 84 -26 25 -54 38 -105 50
-121 30 -165 75 -128 132 33 50 106 58 181 19 52 -26 65 -25 65 4 0 27 -86 61
-152 61 -35 0 -64 -7 -85 -20z"/>
<path d="M3062 3468 c-19 -19 -17 -431 2 -447 9 -8 60 -11 157 -9 136 3 144 4
144 23 0 19 -8 20 -132 23 l-133 3 -2 206 c-3 204 -8 229 -36 201z"/>
<path d="M4079 3469 c-5 -3 -8 -101 -7 -230 l3 -224 130 0 c106 1 137 4 168
19 49 24 71 66 64 120 -6 42 -43 86 -73 86 -21 0 -18 8 16 42 25 24 30 38 30
77 0 40 -5 52 -31 77 -30 28 -33 29 -161 34 -71 3 -134 2 -139 -1z m263 -69
c35 -36 33 -71 -8 -107 -22 -20 -36 -23 -120 -23 l-94 0 0 80 0 80 96 0 c93 0
96 -1 126 -30z m13 -194 c48 -31 45 -105 -5 -131 -20 -10 -59 -15 -130 -15
l-100 0 0 86 0 87 105 -5 c73 -4 113 -11 130 -22z"/>
<path d="M972 3453 c3 -15 16 -18 81 -21 l77 -3 0 -205 c0 -178 2 -205 16
-211 9 -3 20 0 25 8 5 8 9 102 8 209 l-1 195 73 3 c68 3 95 14 83 34 -3 4 -86
8 -185 8 -166 0 -180 -1 -177 -17z"/>
<path d="M1950 3246 c0 -228 4 -252 36 -225 12 10 15 30 12 91 l-3 78 70 0 70
0 69 -90 c38 -49 75 -90 83 -90 34 0 23 34 -36 109 -33 44 -61 82 -61 84 0 3
13 8 29 12 71 15 112 115 77 184 -31 60 -64 71 -213 71 l-133 0 0 -224z m284
155 c18 -17 26 -35 26 -58 0 -79 -41 -103 -172 -103 l-93 0 2 92 c1 51 2 95 3
96 0 2 47 2 104 0 94 -3 107 -5 130 -27z"/>
<path d="M2392 3453 c3 -15 16 -18 81 -21 l77 -3 0 -205 c0 -178 2 -205 16
-211 9 -3 20 0 25 8 5 8 9 102 8 209 l-1 195 73 3 c68 3 95 14 83 34 -3 4 -86
8 -185 8 -166 0 -180 -1 -177 -17z"/>
<path d="M1537 2783 c535 -2 1411 -2 1945 0 535 1 98 2 -972 2 -1070 0 -1507
-1 -973 -2z"/>
<path d="M1258 2555 c-88 -22 -157 -62 -223 -129 -98 -100 -145 -223 -145
-386 0 -263 140 -453 368 -501 73 -15 250 -6 320 15 l52 17 0 49 c0 28 -2 50
-5 50 -3 0 -34 -10 -68 -22 -48 -17 -85 -22 -162 -21 -114 0 -184 21 -258 77
-44 33 -100 116 -118 176 -18 56 -23 226 -9 289 24 109 91 208 176 257 108 63
287 67 427 9 16 -7 18 -2 15 46 -3 53 -4 54 -43 68 -58 20 -257 24 -327 6z"/>
<path d="M4130 2559 c-249 -25 -415 -171 -466 -410 -18 -84 -13 -213 10 -290
67 -219 243 -338 498 -339 87 0 234 22 250 38 5 5 4 38 -3 76 -11 61 -15 67
-33 62 -172 -47 -335 -25 -432 57 -46 39 -92 132 -104 215 -31 197 61 374 222
428 66 22 203 22 273 0 27 -8 51 -13 54 -10 10 9 40 128 35 136 -15 25 -200
47 -304 37z"/>
<path d="M570 2055 l0 -505 55 0 55 0 0 505 0 505 -55 0 -55 0 0 -505z"/>
<path d="M1830 2545 c0 -3 0 -231 0 -507 l0 -503 87 0 88 0 3 223 2 222 215 0
215 0 0 -225 0 -225 90 0 90 0 0 510 0 510 -90 0 -90 0 0 -205 0 -205 -215 0
-215 0 0 205 0 205 -90 0 c-49 0 -90 -2 -90 -5z"/>
<path d="M2880 2253 l-1 -298 -49 -33 c-58 -40 -140 -125 -140 -146 0 -14 36
-46 52 -46 4 0 35 25 70 55 34 30 65 55 68 55 3 0 5 -69 5 -152 l0 -153 305 0
305 0 3 73 3 72 -216 0 -215 0 0 150 0 150 38 19 c45 23 177 65 255 81 86 17
73 34 -20 26 -71 -6 -213 -35 -255 -51 -17 -7 -18 5 -18 169 l0 176 200 0 200
0 0 75 0 75 -295 0 -295 0 0 -297z"/>
</g>
</svg>
